<svg width="89" height="88" fill="none" xmlns="http://www.w3.org/2000/svg"><path d="M43.8649 68.9228h37.0174c4.0888 0 7.4034 3.3146 7.4034 7.4034 0 4.0889-3.3146 7.4035-7.4035 7.4035H43.8649V68.9228z" fill="#fff"/><g filter="url(#filter0_d)"><path d="M44.0131 68.9096c-.0494.0003-.0988.0005-.1482.0005-13.8321 0-25.0452-11.2131-25.0452-25.0452s11.2131-25.0452 25.0452-25.0452 25.0452 11.2131 25.0452 25.0452c0 8.7274-4.464 16.4122-11.2333 20.8957H77.821c3.747-6.0759 5.9087-13.2334 5.9087-20.8957C83.7297 21.8481 65.8816 4 43.8649 4 21.8481 4 4 21.8481 4 43.8649c0 22.0167 17.8481 39.8648 39.8649 39.8648 12.5294 0 23.7088-5.7802 31.0169-14.8196H44.0131v-.0005z" fill="#fff"/></g><defs><filter id="filter0_d" x="0" y="0" width="87.7297" height="87.7297" filterUnits="userSpaceOnUse" color-interpolation-filters="sRGB"><feFlood flood-opacity="0" result="BackgroundImageFix"/><feColorMatrix in="SourceAlpha" values="0 0 0 0 0 0 0 0 0 0 0 0 0 0 0 0 0 0 127 0"/><feOffset/><feGaussianBlur stdDeviation="2"/><feColorMatrix values="0 0 0 0 0 0 0 0 0 0 0 0 0 0 0 0 0 0 0.25 0"/><feBlend in2="BackgroundImageFix" result="effect1_dropShadow"/><feBlend in="SourceGraphic" in2="effect1_dropShadow" result="shape"/></filter></defs></svg>